<?xml version="1.0" encoding="UTF-8"?>
<svg xmlns="http://www.w3.org/2000/svg" xmlns:xlink="http://www.w3.org/1999/xlink" width="525.885" height="208.261" viewBox="0 0 525.885 208.261">
<path fill-rule="nonzero" fill="rgb(34.117126%, 34.117126%, 33.724976%)" fill-opacity="1" d="M 362.054688 124.253906 C 350.894531 120.4375 340.855469 117.894531 340.855469 110.796875 C 340.855469 105.457031 346.058594 101.523438 354.179688 101.523438 C 360.160156 101.523438 366.015625 104.195312 369.386719 109.359375 L 385.738281 102.96875 C 379.972656 92.914062 368.742188 86.160156 355.199219 86.160156 C 336.410156 86.160156 322.6875 97.964844 322.6875 111.808594 C 322.6875 127.296875 335.902344 132.75 346.441406 136.566406 C 359.007812 141.007812 372.179688 143.40625 372.179688 152.40625 C 372.179688 158.378906 366.121094 162.839844 356.597656 162.839844 C 345.640625 162.839844 338.542969 155.460938 336.582031 147.527344 C 331.125 149.660156 325.175781 152 320.203125 153.933594 C 325.476562 168.914062 337.964844 178.589844 355.835938 178.589844 C 376.144531 178.589844 389.230469 167.574219 389.230469 151.707031 C 389.230469 135.832031 375.003906 128.691406 362.054688 124.253906 "/>
<path fill-rule="nonzero" fill="rgb(34.117126%, 34.117126%, 33.724976%)" fill-opacity="1" d="M 369.402344 109.359375 C 376.441406 106.597656 382.902344 104.074219 385.738281 102.96875 L 369.386719 109.359375 Z M 369.402344 109.359375 "/>
<path fill-rule="nonzero" fill="rgb(34.117126%, 34.117126%, 33.724976%)" fill-opacity="1" d="M 336.578125 147.511719 L 320.195312 153.921875 L 320.203125 153.933594 C 325.175781 152 331.125 149.660156 336.582031 147.527344 Z M 336.578125 147.511719 "/>
<path fill-rule="nonzero" fill="rgb(34.117126%, 34.117126%, 33.724976%)" fill-opacity="1" d="M 179.746094 114.347656 C 175.03125 107.738281 166.152344 103.550781 157.386719 103.550781 C 140.753906 103.550781 129.714844 115.484375 129.714844 132.367188 C 129.714844 149.765625 141.519531 160.9375 157.386719 160.9375 C 167.550781 160.9375 176.9375 155.601562 181.394531 147.859375 L 199.160156 152.554688 C 191.800781 168.300781 176.054688 178.589844 157.386719 178.589844 C 131.875 178.589844 111.304688 159.171875 111.304688 132.367188 C 111.304688 105.585938 131.875 86.160156 157.386719 86.160156 C 174.914062 86.160156 189.898438 95.433594 197.765625 109.640625 Z M 179.746094 114.347656 "/>
<path fill-rule="nonzero" fill="rgb(34.117126%, 34.117126%, 33.724976%)" fill-opacity="1" d="M 211.703125 87.933594 L 229.355469 87.933594 L 229.355469 176.800781 L 211.703125 176.800781 Z M 211.703125 87.933594 "/>
<path fill-rule="nonzero" fill="rgb(34.117126%, 34.117126%, 33.724976%)" fill-opacity="1" d="M 279.238281 130.960938 C 289.632812 130.960938 295.613281 125.890625 295.613281 117.652344 C 295.613281 109.265625 289.394531 104.433594 279.238281 104.433594 L 265.53125 104.433594 L 265.53125 130.960938 Z M 279.609375 87.933594 C 300.953125 87.933594 313.898438 99.113281 313.898438 117.652344 C 313.898438 136.304688 300.953125 147.480469 279.609375 147.480469 L 265.53125 147.480469 L 265.53125 176.804688 L 247.875 176.804688 L 247.875 87.933594 Z M 279.609375 87.933594 "/>
<path fill-rule="nonzero" fill="rgb(34.117126%, 34.117126%, 33.724976%)" fill-opacity="1" d="M 452.304688 144.175781 L 443.539062 121.710938 C 441.632812 116.753906 439.347656 109.394531 439.222656 109.394531 L 439.105469 109.394531 C 438.960938 109.394531 436.6875 116.753906 434.789062 121.710938 L 426.019531 144.175781 Z M 458.394531 159.785156 L 419.929688 159.785156 L 413.316406 176.804688 L 394.265625 176.804688 L 430.835938 87.933594 L 447.476562 87.933594 L 484.039062 176.804688 L 464.992188 176.804688 Z M 458.394531 159.785156 "/>
<path fill-rule="nonzero" fill="rgb(34.117126%, 34.117126%, 33.724976%)" fill-opacity="1" d="M 78.84375 63.65625 C 77.035156 65.984375 71.808594 71.273438 62.835938 71.273438 C 51.148438 71.273438 41.730469 62.390625 41.730469 50.101562 C 41.730469 37.835938 51.148438 28.933594 62.835938 28.933594 C 71.386719 29.164062 77.792969 33.308594 81.328125 39.585938 L 77.957031 40.46875 C 74.945312 35.339844 69.238281 32.1875 62.835938 32.1875 C 52.835938 32.1875 45.15625 39.410156 45.15625 50.101562 C 45.15625 60.699219 52.949219 68.023438 62.894531 68.023438 C 71.273438 68.023438 77.210938 62.90625 78.84375 59.292969 L 78.84375 52.835938 L 65.980469 52.835938 L 65.980469 49.925781 L 81.867188 49.925781 L 81.867188 70.582031 L 78.84375 70.582031 C 78.84375 65.179688 78.902344 63.714844 78.902344 63.65625 Z M 78.84375 63.65625 "/>
<path fill-rule="nonzero" fill="rgb(34.117126%, 34.117126%, 33.724976%)" fill-opacity="1" d="M 102.800781 51.789062 C 110.179688 51.789062 114.144531 47.902344 114.144531 42.316406 C 114.144531 36.328125 109.78125 32.957031 102.800781 32.957031 L 94.367188 32.957031 L 94.367188 51.789062 Z M 115.074219 70.472656 L 105.375 54.589844 C 104.484375 54.710938 103.550781 54.765625 102.628906 54.765625 L 94.367188 54.765625 L 94.367188 70.472656 L 91.058594 70.472656 L 91.058594 29.746094 L 102.628906 29.746094 C 111.933594 29.746094 117.570312 34.578125 117.570312 42.316406 C 117.570312 48.253906 114.320312 52.316406 108.730469 53.941406 L 118.847656 70.472656 Z M 115.074219 70.472656 "/>
<path fill-rule="nonzero" fill="rgb(34.117126%, 34.117126%, 33.724976%)" fill-opacity="1" d="M 158.117188 29.746094 L 158.117188 53.941406 C 158.117188 65.226562 152.304688 71.34375 141.765625 71.34375 C 131.128906 71.34375 125.433594 65.226562 125.433594 53.941406 L 125.433594 29.746094 L 128.742188 29.746094 L 128.742188 54.058594 C 128.742188 63.429688 133.167969 68.140625 141.765625 68.140625 C 150.382812 68.140625 154.742188 63.429688 154.742188 54.058594 L 154.742188 29.746094 Z M 158.117188 29.746094 "/>
<path fill-rule="nonzero" fill="rgb(34.117126%, 34.117126%, 33.724976%)" fill-opacity="1" d="M 179.238281 52.03125 C 186.675781 52.03125 190.746094 48.367188 190.746094 42.488281 C 190.746094 36.269531 186.269531 32.957031 179.238281 32.957031 L 170.980469 32.957031 L 170.980469 52.03125 Z M 179.238281 29.75 C 188.59375 29.75 194.183594 34.515625 194.183594 42.488281 C 194.183594 50.402344 188.59375 55.226562 179.238281 55.226562 L 170.980469 55.226562 L 170.980469 70.472656 L 167.664062 70.472656 L 167.664062 29.75 Z M 179.238281 29.75 "/>
<path fill-rule="nonzero" fill="rgb(34.117126%, 34.117126%, 33.724976%)" fill-opacity="1" d="M 220.472656 68.023438 C 230.367188 68.023438 238.214844 60.699219 238.214844 50.101562 C 238.214844 39.410156 230.367188 32.183594 220.472656 32.183594 C 210.53125 32.183594 202.789062 39.410156 202.789062 50.101562 C 202.789062 60.699219 210.53125 68.023438 220.472656 68.023438 M 220.472656 28.9375 C 232.160156 28.9375 241.644531 37.835938 241.644531 50.101562 C 241.644531 62.390625 232.160156 71.273438 220.472656 71.273438 C 208.785156 71.273438 199.359375 62.390625 199.359375 50.101562 C 199.359375 37.835938 208.785156 28.9375 220.472656 28.9375 "/>
<path fill-rule="nonzero" fill="rgb(98.431396%, 45.881653%, 12.548828%)" fill-opacity="1" d="M 113.648438 175.691406 C 109.261719 171.28125 105.546875 166.214844 102.660156 160.644531 L 102.660156 160.640625 C 102.550781 160.4375 102.339844 160.300781 102.089844 160.300781 L 62.132812 160.300781 L 62.132812 138.839844 L 95.421875 138.839844 C 95.78125 138.839844 96.074219 138.546875 96.074219 138.1875 C 96.074219 138.164062 96.070312 138.140625 96.070312 138.121094 C 95.890625 136.203125 95.792969 134.261719 95.792969 132.296875 C 95.792969 129.515625 95.984375 126.773438 96.34375 124.089844 C 96.347656 124.058594 96.351562 124.03125 96.351562 124 C 96.351562 123.644531 96.0625 123.355469 95.703125 123.355469 L 62.132812 123.355469 L 62.132812 104.4375 L 102.089844 104.4375 C 102.339844 104.4375 102.550781 104.296875 102.660156 104.097656 L 102.660156 104.09375 C 105.546875 98.523438 109.261719 93.453125 113.648438 89.046875 C 113.765625 88.925781 113.839844 88.761719 113.839844 88.578125 C 113.839844 88.222656 113.546875 87.933594 113.1875 87.933594 L 44.492188 87.933594 L 44.492188 176.804688 L 113.1875 176.804688 C 113.546875 176.804688 113.839844 176.511719 113.839844 176.160156 C 113.839844 175.976562 113.765625 175.8125 113.648438 175.691406 "/>
</svg>
